HIERARCHY
ROOT hip
{
	OFFSET 0.000000 0.000000 0.000000 
	CHANNELS 6 Xposition Yposition Zposition Xrotation Zrotation Yrotation
	JOINT abdomen
	{
		OFFSET 0.000000 3.402643 0.000000 
		CHANNELS 3 Xrotation Zrotation Yrotation
		JOINT chest
		{
			OFFSET 0.000000 8.438565 -0.680529 
			CHANNELS 3 Xrotation Zrotation Yrotation
			JOINT neck
			{
				OFFSET 0.000000 10.207942 -0.272212 
				CHANNELS 3 Xrotation Zrotation Yrotation
				JOINT head
				{
					OFFSET 0.000000 3.130431 0.000000 
					CHANNELS 3 Xrotation Zrotation Yrotation
					End Site
					{
						OFFSET 0.000000 3.130435 0.000000 
					}
				}
			}
			JOINT lCollar
			{
				OFFSET 3.470700 6.669187 -0.816635 
				CHANNELS 3 Yrotation Zrotation Xrotation
				JOINT lShldr
				{
					OFFSET 3.198488 0.000000 0.000000 
					CHANNELS 3 Zrotation Yrotation Xrotation
					JOINT lForeArm
					{
						OFFSET 10.139888 0.000000 0.000000 
						CHANNELS 3 Yrotation Zrotation Xrotation
						JOINT lHand
						{
							OFFSET 8.370511 0.000000 0.000000 
							CHANNELS 3 Zrotation Yrotation Xrotation
							End Site
							{
								OFFSET 4.083176 0.000000 0.000000 
							}
						}
					}
				}
			}
			JOINT rCollar
			{
				OFFSET -3.470700 6.669187 -0.816635 
				CHANNELS 3 Yrotation Zrotation Xrotation
				JOINT rShldr
				{
					OFFSET -3.198488 0.000000 0.000000 
					CHANNELS 3 Zrotation Yrotation Xrotation
					JOINT rForeArm
					{
						OFFSET -10.139888 0.000000 0.000000 
						CHANNELS 3 Yrotation Zrotation Xrotation
						JOINT rHand
						{
							OFFSET -8.370511 0.000000 0.000000 
							CHANNELS 3 Zrotation Yrotation Xrotation
							End Site
							{
								OFFSET -4.083176 0.000000 0.000000 
							}
						}
					}
				}
			}
		}
	}
	JOINT lThigh
	{
		OFFSET 5.308129 -1.633274 1.361059 
		CHANNELS 3 Xrotation Zrotation Yrotation
		JOINT lShin
		{
			OFFSET -2.041588 -20.007561 0.000000 
			CHANNELS 3 Xrotation Zrotation Yrotation
			JOINT lFoot
			{
				OFFSET 0.000000 -19.190928 -1.224953 
				CHANNELS 3 Xrotation Yrotation Zrotation
				End Site
				{
					OFFSET 0.000000 -2.449906 4.627600 
				}
			}
		}
	}
	JOINT rThigh
	{
		OFFSET -5.308129 -1.633274 1.361059 
		CHANNELS 3 Xrotation Zrotation Yrotation
		JOINT rShin
		{
			OFFSET 2.041588 -20.007561 0.000000 
			CHANNELS 3 Xrotation Zrotation Yrotation
			JOINT rFoot
			{
				OFFSET 0.000000 -19.190928 -1.224953 
				CHANNELS 3 Xrotation Yrotation Zrotation
				End Site
				{
					OFFSET 0.000000 -2.449906 4.627600 
				}
			}
		}
	}
}
MOTION
Frames: 18
Frame Time: 0.011111
23.997967 50.747444 -7.021549 6.328180 4.317150 -4.905244 16.454660 -6.972648 -0.367691 -23.533831 2.453007 0.544785 -11.446571 1.137890 -0.000702 19.938553 1.349523 0.702050 -7.198545 -2.255300 -0.324897 -60.040798 -53.546631 16.972593 -50.957428 7.913816 8.540737 8.524705 12.647240 -26.018932 5.113256 1.510366 0.237230 78.143936 3.963691 -15.552098 40.877144 -5.061338 4.702124 -8.533279 -12.636986 27.308743 3.289590 -2.693982 3.472204 23.240290 -5.686930 -3.955622 -19.795441 -13.249972 -7.880510 -36.929260 -5.722007 2.309111 47.318314 4.016178 6.903625 -24.744646 5.559467 4.849020 
23.997637 50.663940 -6.253149 6.468031 4.171605 -4.460670 16.362204 -6.551144 -0.805475 -23.338331 2.366372 0.390403 -11.492440 0.929751 0.102359 19.709860 1.837882 0.955429 -7.198545 -2.255300 -0.324897 -58.528553 -55.699711 17.665747 -51.627247 8.051669 8.805393 8.524705 12.647240 -24.671276 5.113256 1.510366 0.237230 78.523087 2.864106 -18.792912 40.340084 -4.873516 4.518853 -8.533279 -12.636986 24.906397 4.494506 -2.514627 3.623306 22.296253 -5.724524 -3.829231 -19.277790 -13.877104 -8.071232 -37.669224 -5.555973 2.350897 44.975258 4.231103 6.645063 -24.348619 6.080431 5.101551 
23.976513 50.591652 -5.465937 6.391215 4.073724 -4.260442 16.448126 -6.263638 -1.146819 -23.054960 2.418472 0.273149 -11.564742 0.952118 0.258808 19.428856 1.866115 1.275701 -7.198545 -2.255300 -0.324897 -56.797729 -57.820686 18.415150 -52.372883 8.205839 9.122229 8.524705 12.647240 -23.216198 5.113256 1.510366 0.237230 78.679024 1.741383 -21.279297 39.935410 -4.727680 4.375317 -8.533279 -12.636986 23.119287 5.960442 -2.369910 4.232721 21.368515 -5.763259 -3.713223 -18.968784 -14.508413 -8.270081 -38.211075 -5.204675 2.806420 42.579468 4.436338 6.371573 -24.277206 6.641209 5.356237 
23.943834 50.517056 -4.709089 6.422030 3.882476 -3.936158 16.502464 -5.923715 -1.515023 -22.908461 2.569757 0.147327 -11.696818 0.919939 0.388120 19.449587 1.831750 1.513545 -7.198545 -2.255300 -0.324897 -54.890182 -59.845860 19.305439 -53.097626 8.340521 9.417771 8.524705 12.647240 -21.175184 5.113256 1.510366 0.237230 78.742798 0.560012 -23.599855 39.622448 -4.615387 4.261489 -8.533279 -12.636986 21.488430 7.398174 -2.146716 4.633348 20.285616 -5.802083 -3.553488 -18.379246 -15.203963 -8.411031 -38.826286 -4.911778 2.983133 40.199680 4.622298 6.095530 -23.851223 7.226792 5.617432 
23.932943 50.471180 -3.984917 6.768228 3.737045 -3.234116 16.318724 -5.495061 -2.198636 -23.025949 2.776918 -0.089875 -11.881057 1.006806 0.413883 19.786673 1.399993 1.520095 -7.198545 -2.255300 -0.324897 -53.108479 -61.643692 19.596756 -53.592926 8.433056 9.627193 8.524705 12.647240 -19.309948 5.113256 1.510366 0.237230 78.748917 -0.823696 -25.618912 39.470951 -4.562624 4.218077 -8.533279 -12.636986 20.287254 8.665785 -1.931403 4.571025 18.707119 -5.841595 -3.319088 -17.460445 -15.772266 -8.452350 -39.812668 -4.999942 2.783159 37.992405 4.798122 5.835426 -23.430666 7.442396 5.716181 
23.924030 50.447083 -3.244905 7.008481 3.792005 -2.436436 16.213968 -5.229599 -3.124326 -23.074951 2.923555 -0.361313 -11.565483 1.225140 0.472279 19.196033 0.896936 1.587169 -7.198545 -2.255300 -0.324897 -51.497917 -63.289688 18.690294 -54.194229 8.539721 9.883407 8.524705 12.647240 -18.450575 5.113256 1.510366 0.237230 78.782784 -2.096528 -27.710281 39.238571 -4.471048 4.130335 -8.533279 -12.636986 18.841944 10.366223 -1.912489 4.504824 16.532421 -5.888088 -3.040764 -16.194191 -16.220266 -8.357097 -40.786446 -5.341352 2.711119 36.029587 4.935211 5.609063 -23.353287 7.125145 5.563241 
23.914789 50.364567 -2.479475 7.062686 4.056512 -1.849060 16.250143 -5.229177 -3.941799 -22.859882 3.044583 -0.578897 -11.355856 1.285522 0.586243 18.481970 0.714039 1.806445 -7.198545 -2.255300 -0.324897 -49.811058 -65.056923 16.713852 -54.879959 8.649950 10.166056 8.524705 12.647240 -18.567762 5.113256 1.510366 0.237230 78.809952 -3.114789 -29.842566 38.946659 -4.369055 4.033936 -8.533279 -12.636986 17.152491 12.597740 -2.204243 4.376632 13.800673 -5.965919 -2.647302 -14.635586 -16.402103 -8.008045 -41.726849 -5.829825 2.730844 34.262466 5.052501 5.381212 -22.851690 7.194563 5.561897 
23.932943 50.239799 -1.677078 6.931882 4.552666 -1.443892 16.461840 -5.528614 -4.655512 -22.615446 3.169317 -0.735385 -11.774061 1.378798 0.623619 18.655704 0.475096 1.855579 -7.198545 -2.255300 -0.324897 -47.783710 -66.976425 14.512383 -55.292507 8.716926 10.349695 8.524705 12.647240 -18.694714 5.113256 1.510366 0.237230 78.888550 -4.059004 -32.270279 38.744823 -4.288442 3.962487 -8.533279 -12.636986 15.482567 15.438088 -2.821872 3.836888 10.477055 -5.996961 -2.163285 -13.014460 -16.157093 -7.544301 -42.527836 -6.542730 2.574992 32.570644 5.159842 5.184063 -21.548052 8.428844 6.022531 
23.929642 50.109093 -0.883593 6.791208 4.977933 -0.843248 16.827641 -5.792593 -5.471450 -22.654610 3.319443 -0.937203 -11.833284 1.572952 0.593836 18.350744 0.215727 1.796858 -7.198545 -2.255300 -0.324897 -45.480103 -68.772957 12.832036 -55.462311 8.744071 10.416667 8.524705 12.647240 -18.138075 5.113256 1.510366 0.237230 79.113708 -5.086220 -34.927887 38.654514 -4.258237 3.932630 -8.533279 -12.636986 14.173974 18.634865 -3.191217 2.648333 6.322631 -6.021810 -1.574927 -11.420860 -15.202591 -6.881233 -43.154766 -7.255113 2.192348 30.845476 5.272854 4.934205 -20.333107 9.824475 6.535398 
23.887066 49.978390 -0.134338 6.998591 4.961256 -0.021108 16.914856 -5.578353 -6.271256 -22.781792 3.466645 -1.173826 -11.725639 1.720577 0.591874 17.880655 0.036979 1.799347 -7.198545 -2.255300 -0.324897 -42.805138 -70.540207 10.906498 -55.420128 8.738888 10.405063 8.524705 12.647240 -17.483776 5.113256 1.510366 0.237230 79.274689 -6.247748 -36.707939 38.735073 -4.289257 3.961467 -8.533279 -12.636986 13.939602 22.455692 -3.055327 1.300732 -0.118198 -5.969800 -0.671685 -8.856284 -13.238987 -5.787947 -43.931957 -7.558175 1.659720 28.977911 5.365219 4.703451 -19.623312 10.429303 6.687288 
23.869570 49.830517 0.623170 7.241568 4.727785 0.600413 16.804602 -5.035425 -6.713060 -22.537138 3.456955 -1.344279 -12.085797 1.682824 0.623198 17.890419 0.020769 1.853594 -7.198545 -2.255300 -0.324897 -39.371387 -72.573380 8.050873 -55.272202 8.716420 10.338145 8.524705 12.647240 -17.132214 5.113256 1.510366 0.237230 79.375793 -7.209317 -37.941330 38.866051 -4.338285 4.004109 -8.533279 -12.636986 14.213039 23.050205 -2.596458 0.629063 -0.118184 -5.969799 -0.671684 -8.801049 -13.202991 -5.775332 -44.406151 -7.645132 0.503190 27.031317 5.473841 4.457755 -18.998503 11.258521 6.929415 
23.865280 49.662178 1.387278 7.466732 4.731210 1.102260 16.682579 -4.816081 -7.021535 -22.370758 3.380207 -1.439828 -11.861034 1.640810 0.629794 17.158236 0.048215 1.857928 -7.198545 -2.255300 -0.324897 -36.017807 -74.293076 5.276989 -55.451374 8.741703 10.416647 8.524705 12.647240 -16.868540 5.113256 1.510366 0.237230 79.625946 -8.086712 -39.391785 38.795216 -4.306602 3.976145 -8.533279 -12.636986 14.076320 23.734241 -2.411195 -0.033038 -0.118175 -5.969800 -0.671684 -8.880124 -13.196058 -5.793580 -44.854256 -7.898925 -0.517081 25.251387 5.555971 4.208210 -17.744740 12.759001 7.336824 
23.849766 49.546326 2.156338 7.622590 4.710108 1.546221 16.708122 -4.619957 -7.382797 -22.742245 3.318782 -1.567596 -11.267321 1.858667 0.570229 16.443684 -0.190339 1.762781 -7.198545 -2.255300 -0.324897 -33.285557 -75.407722 3.126138 -55.620998 8.768850 10.492154 8.524705 12.647240 -16.507212 5.113256 1.510366 0.237230 79.920265 -9.558524 -39.789574 38.855835 -4.331506 3.996972 -8.533279 -12.636986 14.808743 24.382265 -2.206257 -0.634711 -0.118172 -5.969802 -0.671684 -9.306910 -13.045714 -5.846155 -45.408775 -8.056160 -0.445495 23.896858 5.620928 4.041894 -16.122410 14.029873 7.506406 
23.844486 49.454899 2.934969 7.610934 4.623963 1.898419 16.992132 -4.244343 -7.848015 -23.152987 3.448780 -1.733344 -11.286596 2.048581 0.572302 16.529795 -0.482815 1.765386 -7.198545 -2.255300 -0.324897 -30.163355 -76.425598 0.454902 -55.630695 8.765657 10.484228 8.524705 12.647240 -16.175182 5.113256 1.510366 0.237230 79.866257 -11.076381 -39.727360 39.077721 -4.417676 4.076980 -8.533279 -12.636986 16.019680 25.236010 -1.961657 -1.114030 -0.119173 -5.969413 -0.652195 -9.575448 -12.863487 -5.858845 -45.729321 -8.163922 -0.666945 23.190069 5.643876 3.933521 -15.547316 14.662079 7.622548 
23.839535 49.327164 3.721853 7.522720 4.754771 2.341568 17.342659 -4.081004 -8.468456 -23.114075 3.716809 -1.916585 -11.430239 2.035755 0.645043 16.148113 -0.621678 1.891634 -7.198545 -2.255300 -0.324897 -26.054033 -77.612144 -3.121369 -55.769073 8.789533 10.548343 8.524705 12.647240 -15.755262 5.113256 1.510366 0.237230 79.488754 -11.871663 -41.315903 38.906002 -4.350180 4.020453 -8.533279 -12.636986 15.609523 26.232891 -1.884032 -1.762615 -0.118162 -5.969800 -0.671684 -9.285937 -12.650709 -5.748635 -46.111797 -8.525650 -1.162213 23.246601 5.661996 3.932431 -15.882854 14.781125 7.731961 
23.835243 49.158497 4.535142 7.417834 5.214303 2.923475 17.671764 -4.314343 -9.165049 -22.898922 3.874708 -2.073658 -11.498421 2.067589 0.648781 15.532439 -0.763783 1.882334 -7.198545 -2.255300 -0.324897 -21.572966 -78.747414 -6.986752 -56.075787 8.832850 10.682424 8.524705 12.647240 -15.237682 5.113256 1.510366 0.237230 79.482849 -12.363288 -42.303642 38.866051 -4.338285 4.004109 -8.533279 -12.636986 15.433740 27.369207 -2.060509 -2.731183 -0.107443 -5.960564 -0.692237 -8.716177 -12.414108 -5.593055 -46.568935 -9.237856 -0.787355 23.599689 5.653549 3.981937 -16.208088 14.542195 7.707144 
23.839205 48.951542 5.328298 7.458181 6.232218 3.493156 18.006630 -5.222419 -9.962756 -22.918663 4.084856 -2.199169 -11.891764 2.178964 0.576742 15.688316 -0.958928 1.749247 -7.198545 -2.255300 -0.324897 -17.425283 -79.691055 -11.514265 -56.362156 8.873950 10.804193 8.524705 12.647240 -15.901744 5.113256 1.510366 0.237230 79.783508 -12.950831 -44.049725 38.926685 -4.363122 4.025749 -8.533279 -12.636986 14.906398 28.513420 -2.695371 -3.980949 -0.106813 -5.950810 -0.693429 -7.824834 -12.033331 -5.332321 -47.512379 -10.418841 0.133844 24.363810 5.595364 4.078084 -15.647477 14.865386 7.717617 
23.855709 48.775620 6.104618 7.403627 5.882486 3.550539 18.284473 -4.432038 -9.855330 -23.025936 3.903688 -2.239746 -12.221810 2.085508 0.627277 15.776468 -0.897104 1.818875 -7.198545 -2.255300 -0.324897 -13.392584 -80.458763 -16.727648 -56.488266 8.887960 10.861139 8.524705 12.647240 -17.503307 5.113256 1.510366 0.237230 80.042191 -13.601651 -45.633820 39.198353 -4.459929 4.122806 -8.533279 -12.636986 14.662256 29.371466 -2.265625 -4.050496 -0.107467 -5.960564 -0.692238 -7.336923 -11.433552 -5.123938 -47.932148 -10.018155 0.837495 25.433708 5.541516 4.241293 -15.636999 14.866014 7.705419 
